<?xml version="1.0" encoding="utf-8"?>
<!-- Generator: Adobe Illustrator 21.0.1, SVG Export Plug-In . SVG Version: 6.00 Build 0)  -->
<svg version="1.1" id="Слой_1" xmlns="http://www.w3.org/2000/svg" xmlns:xlink="http://www.w3.org/1999/xlink" x="0px" y="0px"
	 viewBox="0 0 48 48" style="enable-background:new 0 0 48 48;" xml:space="preserve">
<style type="text/css">
	.st0{fill:#21CD73;}
	.st1{fill:#FFFFFF;}
</style>
<path class="st0" d="M24.5,4.5c-7.7,0-14,6.3-14,14c0,10.5,14,26,14,26s14-15.5,14-26C38.5,10.7,32.2,4.5,24.5,4.5z"/>
<path class="st1" d="M20.7,17.1l-0.3,3.3c-0.3-0.1-0.5-0.4-0.4-0.7l0.2-2.7c0-0.1,0-0.2,0.1-0.3c0,0,0,0.1,0.1,0.1
	c0,0,0.1,0.1,0.1,0.1l0,0l0,0C20.5,16.9,20.6,17,20.7,17.1z M24.4,13.9c1,0,1.7-0.8,1.7-1.7c0-1-0.8-1.7-1.7-1.7
	c-1,0-1.7,0.8-1.7,1.7C22.6,13.1,23.4,13.9,24.4,13.9z M26.6,24.8l-0.1-1.3c-0.4-0.3-0.6-0.7-0.7-1c0,0,0,0,0-0.1l-0.7-5
	c-0.1,0-0.2-0.1-0.2-0.1c-0.1,0-0.1-0.1-0.2-0.1c-0.3-0.3-0.4-0.8-0.2-1.2c0.2-0.2,0.4-0.4,0.7-0.4c0.1,0,0.3,0,0.4,0.1c0,0,0,0,0,0
	c0,0,0.1,0,0.2,0.1l1.6,1.4L27.1,20c-0.1,0.4,0.2,0.8,0.6,0.8c0,0,0.1,0,0.1,0c0.4,0,0.7-0.3,0.7-0.6l0.5-3.1c0-0.2-0.1-0.5-0.2-0.7
	l-2.2-1.8c-0.2-0.1-0.4-0.2-0.5-0.2c0,0,0,0,0,0h-1.2h-1.6h-0.7l0,0c-0.2,0-0.5,0.1-0.6,0.3l-0.6,0.7c0.1,0,0.2,0.1,0.4,0.2
	c0,0,0,0,0,0c0.1,0,0.4,0.3,0.8,0.3c0.1,0,0.2,0,0.3,0l0-0.1v4.4l-1.1,4.4c0,0.1,0,0.2,0,0.3l0.2,4.4c0,0.5,0.4,0.9,0.9,0.9
	c0,0,0,0,0.1,0c0.5,0,0.9-0.5,0.9-1l-0.2-4.2l0.9-3.5l0.2,3.5c0,0,0,0.1,0,0.1l0.9,4.3c0.1,0.4,0.5,0.8,0.9,0.8c0.1,0,0.1,0,0.2,0
	c0.5-0.1,0.8-0.6,0.7-1.1L26.6,24.8z M21.3,24.9c0-0.1,0-0.3,0-0.4l0.5-1.9c0,0,0,0,0,0l0,0c-0.2,0-0.3-0.1-0.4-0.3
	c-0.1-0.1-0.1-0.3-0.1-0.3l0.1-1l0.8,0.1l0.2-0.7l-0.9-0.1l0.3-3.2c0.2,0.1,0.4,0.1,0.7,0.1v-1.1c-0.6,0-1-0.3-1-0.4c0,0,0,0,0,0
	c-0.2-0.2-0.5-0.2-0.7,0c-0.2,0.2-0.2,0.5-0.1,0.7c0,0,0,0.1,0.1,0.1l0,0c0.1,0.1,0.2,0.2,0.3,0.2l-0.4,5.2c0,0,0,0,0,0
	c0,0.3,0.2,1,0.8,1.2l-0.5,5.5c-0.2,0.1-0.3,0.3-0.3,0.5l0,0.4c0,0.1,0.1,0.2,0.2,0.2l0.9,0.1c0,0,0.1,0,0.1,0
	c-0.1-0.2-0.2-0.4-0.2-0.7L21.3,24.9z M29.1,29.5l-0.1-0.4c0-0.2-0.2-0.4-0.4-0.5l-0.8-5.3c0.3-0.1,0.5-0.4,0.6-0.7
	c0.1-0.3,0.1-0.6,0.1-0.6c0,0,0,0,0,0l-0.2-1.1c-0.2,0.1-0.4,0.2-0.7,0.2c0,0,0,0-0.1,0l0.1,0.9c0,0,0,0.2,0,0.3
	c-0.1,0.2-0.2,0.3-0.4,0.3c-0.2,0-0.3,0-0.4-0.2c-0.1-0.1-0.1-0.2-0.1-0.3l-0.1-1l0.9-0.1c-0.4-0.1-0.6-0.3-0.8-0.6l-0.2,0l-0.5-3.2
	c0,0,0.1,0,0.1,0c0.2,0,0.4,0,0.7-0.1l-1.2-1.1c-0.1,0-0.2-0.1-0.2-0.1c0,0,0,0,0,0c-0.2-0.1-0.5-0.1-0.7,0.2
	c-0.2,0.2-0.1,0.5,0.1,0.7c0,0,0.1,0,0.1,0.1c0.1,0.1,0.2,0.1,0.4,0.2l0.8,5.2c0,0,0,0,0,0c0.1,0.3,0.4,0.9,1,1l0.8,5.3
	c-0.2,0.1-0.2,0.4-0.2,0.6l0.1,0.4c0,0.1,0.1,0.2,0.2,0.1l0.9-0.1C29.1,29.7,29.1,29.6,29.1,29.5z"/>
</svg>
