<?xml version="1.0" encoding="utf-8"?>
<!-- Generator: Adobe Illustrator 21.0.1, SVG Export Plug-In . SVG Version: 6.00 Build 0)  -->
<svg version="1.1" id="Слой_1" xmlns="http://www.w3.org/2000/svg" xmlns:xlink="http://www.w3.org/1999/xlink" x="0px" y="0px"
	 viewBox="0 0 141.7 141.7" style="enable-background:new 0 0 141.7 141.7;" xml:space="preserve">
<style type="text/css">
	.st0{fill:none;}
	.st1{fill:#1959ff;}
</style>
<g>
	<title>background</title>
	<rect id="canvas_background" x="-1" y="-1" class="st0" width="582" height="402"/>
</g>
<g>
	<title>Layer 1</title>
	<path id="svg_1" class="st1" d="M55.8,82.3H36.1v9.9h1.7v49.6h16.4V92.2h1.6L55.8,82.3C55.8,82.3,55.8,82.3,55.8,82.3z M59.6,45.5
		c0,0,0-0.1,0-0.1h0V2.7c0-1.5-1.2-2.7-2.7-2.7c-1.5,0-2.7,1.2-2.7,2.7v22.4v9.7V36c-0.3,1.2-1.4,2.2-2.7,2.2
		c-1.5,0-2.7-1.2-2.7-2.7V20.6V2.7C48.7,1.2,47.5,0,46,0s-2.8,1.2-2.8,2.7v17.9v14.8c0,1.5-1.2,2.7-2.7,2.7c-1.5,0-2.7-1.2-2.7-2.7
		V2.8h0c0,0,0-0.1,0-0.1C37.8,1.2,36.5,0,35,0c-1.5,0-2.7,1.2-2.7,2.6c0,0,0,0.1,0,0.1h0v42.6h0c0,0,0,0.1,0,0.1
		c0,10.7,3.5,19.8,8.5,23.5v12.9H51V69C56,65.3,59.6,56.2,59.6,45.5 M97.7,100.9V43.7V0c-9.4,2.8-16.4,11.5-16.4,21.9c0,0,0,0,0,0.1
		h0v78.9h-2.3v10.9h2.3v30h16.4v-30h2.1v-10.9H97.7z"/>
</g>
</svg>
