<svg width="500" height="500" xmlns="http://www.w3.org/2000/svg">

 <g>
  <title>background</title>
  <rect fill="none" id="canvas_background" height="402" width="582" y="-1" x="-1"/>
 </g>
 <g>
  <title>Layer 1</title>
  <path id="svg_1" fill-rule="evenodd" fill="#1959ff" d="m31.949,431.711c0,20.078 16.264,36.34 36.34,36.34l363.421,0c20.078,0 36.34,-16.262 36.34,-36.34l0,-272.566c0,-20.078 -16.262,-36.342 -36.34,-36.342l-72.685,0l0,-54.513c0,-20.077 -16.263,-36.34 -36.342,-36.34l-145.366,0c-20.079,0 -36.342,16.264 -36.342,36.34l0,54.513l-72.685,0c-20.077,0 -36.34,16.264 -36.34,36.342l0,272.566l-0.001,0zm281.65,-308.909l-127.198,0l0,-25.435c0,-11.083 8.905,-19.991 19.991,-19.991l87.215,0c11.085,0 19.991,8.909 19.991,19.991l0,25.435l0.001,0zm-152.636,127.198l43.61,0l0,-43.608c0,-11.083 8.902,-19.991 19.989,-19.991l50.877,0c11.08,0 19.987,8.909 19.987,19.991l0,43.608l43.607,0c11.085,0 19.992,8.907 19.992,19.991l0,50.875c0,11.081 -8.907,19.986 -19.992,19.986l-43.607,0l0,43.613c0,11.08 -8.907,19.986 -19.987,19.986l-50.877,0c-11.086,0 -19.989,-8.906 -19.989,-19.986l0,-43.613l-43.61,0c-11.086,0 -19.989,-8.905 -19.989,-19.986l0,-50.875c0.001,-11.084 8.903,-19.991 19.989,-19.991z" clip-rule="evenodd"/>
 </g>
</svg>