<svg width="48" height="48" xmlns="http://www.w3.org/2000/svg">

 <g>
  <title>background</title>
  <rect fill="none" id="canvas_background" height="402" width="582" y="-1" x="-1"/>
 </g>
 <g>
  <title>Layer 1</title>
  <path id="svg_2" fill="#ffffff" d="m46.239,22.07l0,-11.8c0,-1.299 -1.052,-2.353 -2.353,-2.353l-23.6,0c-1.3,0 -2.352,1.054 -2.352,2.353l0,11.8c0,0 -0.005,0.252 0,0.659l0,0.056c0,0.005 0,0.01 0,0.012c0.007,0.306 0.023,0.713 0.055,1.185c0.097,1.957 0.41,3.845 0.828,5.55c1.343,5.841 4.729,13.723 13.27,18.418c8.65,-5.041 12.005,-13.012 13.315,-18.78c0.689,-2.959 0.822,-5.265 0.837,-6.223l0,-0.237c0.007,-0.397 0,-0.64 0,-0.64zm-24.778,0.103c0,0 4.08,-5.466 8.241,0c-4.025,6.391 -8.241,0 -8.241,0zm10.626,16.544c-3.898,0 -7.059,-3.16 -7.059,-7.057c7.58,6.064 14.116,0 14.116,0c0.001,3.897 -3.158,7.057 -7.057,7.057zm2.386,-16.544c4.16,-5.466 8.239,0 8.239,0s-4.215,6.391 -8.239,0z"/>
  <path id="svg_3" fill="#ffffff" d="m18.269,36.874c-0.018,-0.04 -1.556,-3.18 -1.991,-4.761c-0.488,-1.899 -0.853,-3.767 -1.111,-5.497c-1.951,0.131 -4.113,0.93 -6.311,2.992c-0.013,-3.48 2.504,-6.36 5.818,-6.952c-0.034,-0.376 -0.096,-0.74 -0.114,-1.123c-0.033,-0.475 -0.048,-0.879 -0.055,-1.187c0,-0.003 0,-0.008 0,-0.012l0,-0.059c-0.004,-0.406 0,-0.654 0,-0.654l0,-0.656c-0.029,-1.28 0,-2.035 0,-2.035l0,-9.11c0,-1.299 1.051,-2.353 2.353,-2.353l13.208,0l0,-3.062c0,-1.299 -1.052,-2.354 -2.353,-2.354l-23.6,0c-1.3,0 -2.353,1.056 -2.353,2.354l0,11.8c0,0 -0.004,0.25 0,0.656l0,0.056c0,0.005 0,0.01 0,0.015c0.007,0.308 0.023,0.71 0.055,1.184c0.097,1.958 0.409,3.843 0.827,5.551c1.344,5.838 4.728,13.72 13.27,18.418c0.82,-0.479 1.558,-0.998 2.268,-1.53l0.006,0.002l0.069,-0.059c0.049,-0.037 0.102,-0.072 0.152,-0.109c-0.002,-0.005 -0.002,-0.007 -0.003,-0.012l0.45,-0.369l-0.585,-1.134zm-12.983,-22.569c0,0 4.082,-5.461 8.242,0c-4.025,6.391 -8.242,0 -8.242,0z"/>
 </g>
</svg>