<svg width="32" height="32" xmlns="http://www.w3.org/2000/svg">

 <g>
  <title>background</title>
  <rect fill="none" id="canvas_background" height="402" width="582" y="-1" x="-1"/>
 </g>
 <g>
  <title>Layer 1</title>
  <path fill="#ffffff" id="svg_2" d="m1,25l12,0c0.554,0 1,-0.336 1,-0.75l0,-1.5c0,-0.414 -0.446,-0.75 -1,-0.75l-12,0c-0.553,0 -1,0.336 -1,0.75l0,1.5c0,0.414 0.447,0.75 1,0.75zm0,4l12,0c0.554,0 1,-0.336 1,-0.75l0,-1.5c0,-0.414 -0.446,-0.75 -1,-0.75l-12,0c-0.553,0 -1,0.336 -1,0.75l0,1.5c0,0.414 0.447,0.75 1,0.75zm0,-8l12,0c0.554,0 1,-0.336 1,-0.75l0,-1.5c0,-0.414 -0.446,-0.75 -1,-0.75l-12,0c-0.553,0 -1,0.336 -1,0.75l0,1.5c0,0.414 0.447,0.75 1,0.75zm14.956,-0.397c0.017,-0.117 0.044,-0.229 0.044,-0.353l0,-1.5c0,-1.543 -1.316,-2.75 -3,-2.75l-4,0c0,-2.763 2.238,-5 5,-5c2.763,0 5,2.237 5,5c0,2.065 -1.256,3.84 -3.044,4.603zm-15.956,-13.603l28,0l0,18l-12.118,0c0.07,-0.237 0.118,-0.487 0.118,-0.75l0,-1.25l6,0c0,-2.209 1.791,-4 4,-4l0,-6c-2.209,0 -4,-1.791 -4,-4l-16,0c0,2.209 -1.791,4 -4,4l0,3l-1,0c-0.354,0 -0.686,0.063 -1,0.162l0,-9.162zm32,-4l0,20l-2,0l0,-18l-28,0l0,-2l30,0z"/>
 </g>
</svg>