<svg width="24" height="24" xmlns="http://www.w3.org/2000/svg">

 <g>
  <title>background</title>
  <rect fill="none" id="canvas_background" height="402" width="582" y="-1" x="-1"/>
 </g>
 <g>
  <title>Layer 1</title>
  <circle fill="#ffffff" id="svg_1" r="2" cy="4" cx="17"/>
  <path id="svg_2" stroke-width="2" stroke-miterlimit="10" stroke="#ffffff" fill="#ffffff" d="m4,16c0,0 2.9,0 4.5,0c0.6,0 1.2,-0.3 1.6,-0.8l0.3,-0.4"/>
  <path id="svg_3" stroke-width="2" stroke-miterlimit="10" stroke="#ffffff" fill="none" d="m7,8c0,0 2.1,-1 3.2,-1.6c0.5,-0.2 1,-0.3 1.5,-0.1l1.3,0.4l1.7,0.8c0.4,0.2 0.7,0.5 0.9,0.9l0.8,1.6c0.3,0.7 1,1.1 1.8,1.1c1.2,0 2.9,0 2.9,0"/>
  <path fill="#ffffff" id="svg_4" d="m12.7,7l-2.4,4.2c-0.5,0.9 -0.3,2 0.5,2.7l3.9,2.8l-1.2,-2.9c0,0 -0.8,0.1 -0.6,-0.2l2.9,-5.2l-3.1,-1.4z"/>
  <path fill="#ffffff" id="svg_5" d="m13.9,17l-1.9,5l2.1,0l1.7,-4.3c0.4,-1.1 0.2,-2.4 -0.7,-3.2l-2.4,-2.4l-1.4,1.4l2.4,2.4c0.3,0.3 0.4,0.7 0.2,1.1z"/>
 </g>
</svg>