<?xml version="1.0" encoding="utf-8"?>
<!-- Generator: Adobe Illustrator 21.0.1, SVG Export Plug-In . SVG Version: 6.00 Build 0)  -->
<svg version="1.1" id="Слой_1" xmlns="http://www.w3.org/2000/svg" xmlns:xlink="http://www.w3.org/1999/xlink" x="0px" y="0px"
	 viewBox="0 0 48 48" style="enable-background:new 0 0 48 48;" xml:space="preserve">
<style type="text/css">
	.st0{fill:#FF5134;}
	.st1{fill:#FFFFFF;}
</style>
<path class="st0" d="M24.7,4.5c-7.7,0-14,6.3-14,14c0,10.5,14,26,14,26s14-15.5,14-26C38.7,10.7,32.4,4.5,24.7,4.5z"/>
<path class="st1" d="M33.2,10.2c-0.2-0.2-0.5-0.3-0.7-0.1l-7.3,5.7h-8.8v1.1h1.1v1.9c0,0.6,0.5,1,1,1h1.6l-1.9,1.5
	C18,21.3,18,21.5,18,21.6v1.6c-1.1,0.2-2,1.2-2,2.4c0,1.4,1.1,2.5,2.5,2.5c1.4,0,2.5-1.1,2.5-2.5c0-1.2-0.8-2.2-2-2.4v-1.4l2.7-2.1
	h0.6l3.4,3.4c-0.4,0.5-0.7,1.2-0.7,1.9c0,1.7,1.4,3.1,3.1,3.1c1.7,0,3.1-1.4,3.1-3.1c0-1.7-1.4-3.1-3.1-3.1c-0.6,0-1.2,0.2-1.7,0.5
	l-2.7-2.7H29c0.6,0,1-0.5,1-1v-1.9h1.1v-1.1h-4.3l6.3-4.9C33.3,10.7,33.4,10.4,33.2,10.2z M19.4,25.7c0,0.5-0.4,1-1,1s-1-0.4-1-1
	c0-0.5,0.4-1,1-1S19.4,25.2,19.4,25.7z M28.1,23.5c0.9,0,1.6,0.7,1.6,1.6c0,0.9-0.7,1.6-1.6,1.6c-0.9,0-1.6-0.7-1.6-1.6
	C26.6,24.2,27.3,23.5,28.1,23.5z"/>
</svg>
