<?xml version="1.0" encoding="utf-8"?>
<!-- Generator: Adobe Illustrator 21.0.1, SVG Export Plug-In . SVG Version: 6.00 Build 0)  -->
<svg version="1.1" id="Режим_изоляции"
	 xmlns="http://www.w3.org/2000/svg" xmlns:xlink="http://www.w3.org/1999/xlink" x="0px" y="0px" viewBox="0 0 754.7 943.4"
	 style="enable-background:new 0 0 754.7 943.4;" xml:space="preserve">
<style type="text/css">
	.st0{fill:#1959ff;}
</style>
<path class="st0" d="M570.4,528.4c8.9,21.2,0,45.5-25.6,45.5l-145.1,0c-27.1,0-32.1-25.7-24-46.8l72.5-172.9
	c11.6-27.9,37.9-24.3,49.6,1.2L570.4,528.4z M281.8,180.7c36.4,0,63.4,31.6,63.4,67s-27,67-63.4,67c-36.4,0-63.4-31.6-63.4-67
	C218.4,212.3,245.4,180.7,281.8,180.7L281.8,180.7z M306.7,553.1c-11.6,25.5-38,29.1-49.6,1.2l-72.5-172.9c-8.1-21-3-46.8,24-46.8
	h73.1l72,0c25.6,0,34.5,24.4,25.6,45.5L306.7,553.1z M472.9,180.7c36.4,0,63.4,31.6,63.4,67s-27,67-63.4,67s-63.4-31.6-63.4-67
	C409.5,212.3,436.5,180.7,472.9,180.7z"/>
</svg>
