<svg width="141.732" height="141.732" xmlns="http://www.w3.org/2000/svg">

 <g>
  <title>background</title>
  <rect fill="none" id="canvas_background" height="402" width="582" y="-1" x="-1"/>
 </g>
 <g>
  <title>Layer 1</title>
  <path fill="#1959ff" id="svg_1" d="m114.944,118.188l-14.396,0l0,14.752c0,3.976 3.222,7.197 7.197,7.197c3.975,0 7.194,-3.226 7.194,-7.197l0.005,-14.752l0,0zm-73.762,0l-14.395,0l0,14.752c0,3.976 3.224,7.197 7.194,7.197c3.979,0 7.198,-3.226 7.198,-7.197l0.003,-14.752l0,0zm73.941,-55.491c0,2.037 -1.65,3.688 -3.688,3.688l-81.137,0l-0.002,0c-2.036,0 -3.688,-1.65 -3.688,-3.688l0,-36.888c0,-2.033 1.655,-3.683 3.696,-3.683l0.001,0l81.125,0c0.001,0 0.003,-0.002 0.004,-0.002c2.037,0 3.688,1.647 3.688,3.685l0.001,36.888l0,0zm-14.752,-51.633c0,2.037 -1.651,3.688 -3.688,3.688l-0.003,0l-51.72,0c-1.987,0 -3.604,-1.649 -3.604,-3.688s1.612,-3.688 3.604,-3.688l51.722,0c2.037,-0.001 3.689,1.651 3.689,3.688m-73.584,77.45c0,-3.881 3.224,-7.025 7.194,-7.025c3.979,0 7.198,3.146 7.198,7.025s-3.222,7.021 -7.198,7.021c-3.971,0.002 -7.194,-3.142 -7.194,-7.021m29.506,-5.534c0,-1.896 1.507,-3.438 3.39,-3.504l0,-0.006l0.119,0l0.001,0l21.95,0l0,0.01c0.059,-0.004 0.117,-0.01 0.178,-0.01c1.938,0 3.51,1.569 3.51,3.51c0,1.938 -1.567,3.51 -3.51,3.51c-0.061,0 -0.119,-0.006 -0.178,-0.009l0,0.009l-22.07,0l0,-0.006c-1.884,-0.062 -3.39,-1.605 -3.39,-3.504m0,11.065c0,-1.896 1.507,-3.438 3.39,-3.504l0,-0.006l22.07,0l0,0.01c0.059,-0.004 0.117,-0.01 0.178,-0.01c1.938,0 3.51,1.57 3.51,3.51c0,1.938 -1.567,3.513 -3.51,3.513c-0.061,0 -0.119,-0.006 -0.178,-0.011l0,0.011l-22.07,0l0,-0.006c-1.884,-0.066 -3.39,-1.609 -3.39,-3.507m44.256,-5.531c0,-3.881 3.222,-7.025 7.197,-7.025c3.975,0 7.194,3.146 7.194,7.025s-3.223,7.021 -7.194,7.021c-3.976,0.002 -7.197,-3.142 -7.197,-7.021m21.951,-81.137l0,-0.002c0,-4.071 -3.304,-7.375 -7.377,-7.375l-88.514,0l-0.001,0c-4.073,0 -7.376,3.304 -7.376,7.375l0,103.438c0,3.976 3.228,7.197 7.198,7.197c0.06,0 0.117,-0.009 0.178,-0.011l0,0.188l88.515,0c4.07,0 7.377,-3.303 7.377,-7.377l0,-103.433z"/>
 </g>
</svg>