<?xml version="1.0" encoding="utf-8"?>
<!-- Generator: Adobe Illustrator 21.0.1, SVG Export Plug-In . SVG Version: 6.00 Build 0)  -->
<svg version="1.1" id="Слой_1" xmlns="http://www.w3.org/2000/svg" xmlns:xlink="http://www.w3.org/1999/xlink" x="0px" y="0px"
	 viewBox="0 0 48 48" style="enable-background:new 0 0 48 48;" xml:space="preserve">
<style type="text/css">
</style>
<path fill="#21CD73" class="st0" d="M22.2,5.6c-7.7,0-14,6.3-14,14c0,10.5,14,26,14,26s14-15.5,14-26C36.2,11.8,29.9,5.6,22.2,5.6z"/>
<g>
	<circle fill="#FFFFFF" cx="18.6" cy="24.5" r="0.9"/>
	<path fill="#FFFFFF" d="M30.4,25.5h-2l-0.8-4.7c-0.1-0.4-0.5-0.8-0.9-0.8h-5.2c-0.9-0.6-1.9-0.9-3-0.9c0,0-0.1,0-0.1,0l-0.2-1.8H24
		c0.5,0,0.9-0.4,0.9-0.9c0-0.5-0.4-0.9-0.9-0.9h-6l-0.4-2.8c-0.1-0.5-0.4-0.8-0.9-0.8H14c-0.5,0-0.9,0.4-0.9,0.9
		c0,0.5,0.4,0.9,0.9,0.9H16l0.7,5.8c-2.1,0.8-3.6,2.8-3.6,5.1c0,3,2.4,5.5,5.4,5.5c2.7,0,4.9-2,5.4-4.5h2.6l0.2,1.1
		c0.1,0.4,0.5,0.8,0.9,0.8h2.7c0.5,0,0.9-0.4,0.9-0.9C31.3,25.9,30.9,25.5,30.4,25.5z M18.6,28.2c-2,0-3.6-1.6-3.6-3.6
		c0-2,1.6-3.6,3.6-3.6s3.6,1.6,3.6,3.6C22.2,26.6,20.6,28.2,18.6,28.2z"/>
</g>
</svg>
