<?xml version="1.0" encoding="utf-8"?>
<!-- Generator: Adobe Illustrator 21.0.1, SVG Export Plug-In . SVG Version: 6.00 Build 0)  -->
<svg version="1.1" id="Слой_1" xmlns="http://www.w3.org/2000/svg" xmlns:xlink="http://www.w3.org/1999/xlink" x="0px" y="0px"
	 viewBox="0 0 614 165" style="enable-background:new 0 0 614 165;" xml:space="preserve">
<style type="text/css">
	.st0{fill:#21CD73;}
	.st1{opacity:0.7;fill:#1959FF;}
	.st2{fill:#1959FF;}
	.st3{fill:#FFFFFF;}
	.st4{fill:#383838;}
</style>
<g>
	<circle class="st0" cx="132" cy="97.3" r="26.3"/>
	<circle class="st1" cx="105.7" cy="117.9" r="31.5"/>
	<g id="pin_1_">
		<path class="st2" d="M123.5,81c0-22-17.8-39.7-39.7-39.7c-22,0-39.7,17.8-39.7,39.7c0,3.9,0.6,7.7,1.6,11.3
			c5.7,22.9,38.3,48.5,38.3,48.5s36.9-28.9,39-52.7l-0.1,0C123.3,85.7,123.5,83.4,123.5,81z M84.3,89.8c-9,0-16.3-7.3-16.3-16.3
			s7.3-16.3,16.3-16.3c9,0,16.3,7.3,16.3,16.3S93.3,89.8,84.3,89.8z"/>
	</g>
	<g>
		<circle class="st3" cx="83.8" cy="79.5" r="26.3"/>
		<g>
			<circle class="st3" cx="83.8" cy="79.5" r="13.4"/>
			<path class="st0" d="M83.8,96c-9.1,0-16.4-7.4-16.4-16.4s7.4-16.4,16.4-16.4s16.4,7.4,16.4,16.4S92.9,96,83.8,96z M83.8,69.1
				c-5.8,0-10.4,4.7-10.4,10.4S78,90,83.8,90s10.4-4.7,10.4-10.4S89.6,69.1,83.8,69.1z"/>
		</g>
	</g>
	<g>
		<path class="st4" d="M225.8,86.8c0,9.1-6.9,14.8-17.8,14.8h-8.3v11.3h-9.5v-41H208C218.9,71.9,225.8,77.6,225.8,86.8z M216.2,86.8
			c0-4.5-2.9-7.2-8.7-7.2h-7.7v14.2h7.7C213.3,93.9,216.2,91.3,216.2,86.8z"/>
		<path class="st4" d="M258.7,112.9l-7.9-11.4h-0.5H242v11.4h-9.5v-41h17.8c11,0,17.8,5.7,17.8,14.9c0,6.2-3.1,10.7-8.4,13l9.2,13.2
			H258.7z M249.8,79.6H242v14.3h7.7c5.8,0,8.7-2.7,8.7-7.2C258.5,82.3,255.6,79.6,249.8,79.6z"/>
		<path class="st4" d="M273.1,92.4c0-12.2,9.5-21.2,22.5-21.2c12.9,0,22.5,9,22.5,21.2c0,12.3-9.6,21.2-22.5,21.2
			C282.6,113.7,273.1,104.6,273.1,92.4z M308.4,92.4c0-7.8-5.5-13.1-12.8-13.1s-12.8,5.3-12.8,13.1c0,7.8,5.5,13.1,12.8,13.1
			S308.4,100.2,308.4,92.4z"/>
		<path class="st4" d="M363.3,71.9l-17.8,41h-9.4l-17.7-41h10.3l12.5,29.3l12.7-29.3H363.3z"/>
		<path class="st4" d="M363.6,92.4c0-12.2,9.5-21.2,22.5-21.2c12.9,0,22.5,9,22.5,21.2c0,12.3-9.6,21.2-22.5,21.2
			C373.1,113.7,363.6,104.6,363.6,92.4z M398.9,92.4c0-7.8-5.5-13.1-12.8-13.1s-12.8,5.3-12.8,13.1c0,7.8,5.5,13.1,12.8,13.1
			S398.9,100.2,398.9,92.4z"/>
		<path class="st4" d="M415.7,71.9h18.6c13.4,0,22.6,8.1,22.6,20.5s-9.2,20.5-22.6,20.5h-18.6V71.9z M433.9,105.2
			c8.2,0,13.5-4.9,13.5-12.7c0-7.9-5.3-12.7-13.5-12.7h-8.7v25.5H433.9z"/>
		<path class="st4" d="M501.8,71.9v41H494L473.5,88v24.9h-9.4v-41h7.9l20.4,24.9V71.9H501.8z"/>
		<path class="st4" d="M511.5,71.9h9.5v41h-9.5V71.9z"/>
		<path class="st4" d="M545.7,96.8l-5.5,5.7v10.4h-9.4v-41h9.4v19.2l18.2-19.2h10.6l-17,18.3l18,22.8h-11.1L545.7,96.8z"/>
	</g>
</g>
</svg>
